<?xml version="1.0" standalone="no"?>
<!DOCTYPE svg PUBLIC "-//W3C//DTD SVG 20010904//EN"
 "http://www.w3.org/TR/2001/REC-SVG-20010904/DTD/svg10.dtd">
<svg version="1.0" xmlns="http://www.w3.org/2000/svg"
 width="54.000000pt" height="55.000000pt" viewBox="0 0 54.000000 55.000000"
 preserveAspectRatio="xMidYMid meet">

<g transform="translate(0.000000,55.000000) scale(0.100000,-0.100000)"
fill="#000000" stroke="none">
<path d="M0 275 l1 -275 269 0 269 0 1 275 0 275 -270 0 -270 0 0 -275z m468
113 l3 -128 -206 0 -205 0 0 123 c0 68 3 127 7 131 4 3 95 5 202 4 l196 -3 3
-127z m25 -218 c10 -33 17 -62 17 -65 0 -3 -110 -5 -245 -5 -135 0 -245 1
-245 3 0 2 7 26 16 53 9 27 17 55 20 62 2 9 54 12 212 12 l209 0 16 -60z m12
-110 c-4 -6 -95 -10 -240 -10 -145 0 -236 4 -240 10 -4 7 78 10 240 10 162 0
244 -3 240 -10z"/>
<path d="M80 385 l0 -115 185 0 185 0 0 115 0 115 -185 0 -185 0 0 -115z m150
78 c3 -3 -14 -3 -37 -2 -47 4 -52 1 -58 -30 -6 -30 17 -36 56 -17 26 13 29 13
19 1 -7 -8 -18 -15 -26 -15 -9 0 -12 -14 -11 -50 l2 -50 -32 0 -33 0 0 91 0
90 58 -7 c31 -3 59 -9 62 -11z m50 2 c-6 -8 -9 -19 -5 -25 3 -5 -1 -10 -9 -10
-10 0 -13 6 -10 15 4 8 1 15 -5 15 -6 0 -11 5 -11 10 0 6 12 10 26 10 22 0 24
-2 14 -15z m140 -75 l0 -90 -36 0 -36 0 4 50 c3 34 1 50 -8 50 -6 0 -17 7 -24
15 -10 12 -7 12 19 -1 37 -18 61 -13 56 13 -2 10 -4 23 -4 29 -1 7 -17 11 -43
9 -42 -3 -42 -2 -8 5 83 17 80 21 80 -80z m-105 10 c4 -6 -15 -10 -50 -10 -35
0 -54 4 -50 10 3 6 26 10 50 10 24 0 47 -4 50 -10z m-98 -36 c-3 -3 -12 -4
-19 -1 -8 3 -5 6 6 6 11 1 17 -2 13 -5z m120 0 c-3 -3 -12 -4 -19 -1 -8 3 -5
6 6 6 11 1 17 -2 13 -5z m-20 -58 c3 -3 -19 -6 -51 -6 -31 0 -55 3 -53 8 6 8
95 7 104 -2z"/>
<path d="M170 178 c0 -7 -3 -23 -6 -35 -6 -23 -5 -23 100 -23 112 0 112 0 100
48 -6 21 -11 22 -100 22 -68 0 -94 -3 -94 -12z m170 -28 c0 -6 -32 -10 -75
-10 -43 0 -75 4 -75 10 0 6 32 10 75 10 43 0 75 -4 75 -10z"/>
</g>
</svg>
