<?xml version="1.0" encoding="utf-8"?>
<!-- Svg Vector Icons : http://www.onlinewebfonts.com/icon -->
<!DOCTYPE svg PUBLIC "-//W3C//DTD SVG 1.1//EN" "http://www.w3.org/Graphics/SVG/1.1/DTD/svg11.dtd">
<svg version="1.1" xmlns="http://www.w3.org/2000/svg" xmlns:xlink="http://www.w3.org/1999/xlink" x="0px" y="0px" viewBox="0 0 1000 1000" enable-background="new 0 0 1000 1000" xml:space="preserve">
<metadata> Svg Vector Icons : http://www.onlinewebfonts.com/icon </metadata>
<g><g><g><path style="fill:#f7ae14;" d="M960.4,498.6c-1.7-2.8-4.2-5-7.1-6.6L749.2,387l-56.7,74.1l91.7,47.1l-164.1,84.4l-20.4-10.4l-49.4,64.3c-2.4,3.3-5.7,6.3-9.3,8.9l70.5,36.3c2.7,1.3,5.6,1.9,8.5,1.9c2.8,0,5.7-0.6,8.3-1.9l313.5-161.3c0.4,0,0.9,0.3,1.3,0.3c3,1.6,10,14.2,10,34.8c0,14-9.4,28.7-16.7,36.6h-0.1L620.1,765L418.8,661.5l-86-2.9L611.6,802c2.7,1.3,5.6,2,8.5,2c2.8,0,5.7-0.7,8.3-2l308.1-158.5c25.9-6.1,53.5-44.5,53.5-77.8C990,533.1,978.1,508,960.4,498.6z"/><path style="fill:#f7ae14;" d="M521.6,635.2c2.7-1.2,5-3.1,6.7-5.5l210.8-275c20.8-16.6,29.2-63.2,15-93.3c-14-29.4-35.4-47.1-55.5-48c-2.7-1.8-5.9-2.8-9.2-2.9L251.3,196c-5.9-0.2-11.6,2.5-15.2,7.2l-222.2,290c-4.2,5.4-5,12.8-2,19.1c3,6.2,9.1,10.2,16,10.4l11.4,0.4c6.9,5.1,14.6,14.1,20.9,27.2c7.3,15.4,8.6,28.9,7.2,37.6c-5.7,3-9.9,8.6-10,15.6c-0.4,10.1,7.6,18.6,17.7,18.9l438.1,14.5C516,637,519,636.4,521.6,635.2z M286,289.1l257.5,8.5L431.2,444.1l-257.5-8.5L286,289.1z M86.4,585.9c0.9-12.6-2.1-27.9-9.6-43.5c-3.2-7-7.1-13.1-11.1-18.4L466,537.2c2.9,0.2,5.8-0.5,8.4-1.8c2.6-1.2,5-3,6.7-5.3l214.4-279.8c0.4-0.2,0.9-0.1,1.3-0.4c3.4,0.2,15.1,8.6,24,27.3c6,12.6,3.8,29.9,0.6,40.2c0,0-0.1,0-0.1,0L504.9,599.8L86.4,585.9z"/></g></g><g></g><g></g><g></g><g></g><g></g><g></g><g></g><g></g><g></g><g></g><g></g><g></g><g></g><g></g><g></g></g>
</svg>