<?xml version="1.0" encoding="utf-8"?>
<!-- Svg Vector Icons : http://www.onlinewebfonts.com/icon -->
<!DOCTYPE svg PUBLIC "-//W3C//DTD SVG 1.1//EN" "http://www.w3.org/Graphics/SVG/1.1/DTD/svg11.dtd">
<svg version="1.1" xmlns="http://www.w3.org/2000/svg" xmlns:xlink="http://www.w3.org/1999/xlink" x="0px" y="0px" viewBox="0 0 1000 1000" enable-background="new 0 0 1000 1000" xml:space="preserve">

<metadata> Svg Vector Icons : http://www.onlinewebfonts.com/icon </metadata>
<g><g transform="translate(0.000000,512.000000) scale(0.100000,-0.100000)"><path style="fill:#ffffff;" d="M2399.7,4982.7c-136-61.3-157-132.1-157-540v-340.8h-128.3c-624.2-1.9-1097.2-478.7-1097.2-1104.8v-120.6H678.3c-296.8,0-352.3-5.7-423.2-38.3c-206.8-93.8-206.8-442.3,0-536.2c70.8-32.6,126.4-38.3,423.2-38.3h338.9v-306.4v-306.4H678.3c-296.8,0-352.3-5.7-423.2-38.3c-206.8-93.8-206.8-442.3,0-536.2c70.8-32.6,126.4-38.3,423.2-38.3h338.9V731.8V425.4H678.3c-296.8,0-352.3-5.7-423.2-38.3C48.3,293.3,48.3-55.2,255.1-149c70.8-32.5,126.4-38.3,423.2-38.3h338.9v-306.4v-306.4H678.3c-409.8,0-480.6-21.1-541.9-157c-76.6-168.5-23-352.3,118.7-417.4c70.8-32.6,126.4-38.3,423.2-38.3h338.9v-306.4v-306.4H672.5c-312.1,0-354.2-3.8-423.2-40.2c-201.1-101.5-197.2-442.3,5.8-534.2c70.8-32.6,126.4-38.3,423.2-38.3h338.9v-128.3c1.9-381,187.7-733.4,486.4-922.9c176.2-111.1,331.3-158.9,553.4-170.4l185.7-9.6v-337c0-293,5.7-348.5,38.3-419.3c93.8-206.8,442.3-206.8,536.1,0c32.6,70.8,38.3,126.4,38.3,423.2v338.9h306.4h306.4v-338.9c0-296.8,5.7-352.3,38.3-423.2c93.8-206.8,442.3-206.8,536.1,0c32.6,70.8,38.3,126.4,38.3,423.2v338.9h306.4h306.4v-344.7c0-312.1,3.8-354.2,40.2-423.2c101.5-201.1,442.3-197.2,534.2,5.7c32.6,70.8,38.3,126.4,38.3,423.2v338.9h306.4h306.4v-338.9c0-296.8,5.7-352.3,38.3-423.2c93.8-206.8,442.3-206.8,536.1,0c32.6,70.8,38.3,126.4,38.3,423.2v338.9h306.4h306.4v-338.9c0-296.8,5.7-352.3,38.3-423.2c93.8-206.8,442.3-206.8,536.1,0c32.6,70.8,38.3,126.4,38.3,419.3v337L7945-3858c304.5,17.2,530.4,118.7,735.3,335.1c195.3,204.9,279.6,404,296.8,697l11.5,187.6h337c405.9,0,476.8,21.1,538.1,157c76.6,168.5,23,352.3-118.7,417.4c-70.8,32.6-126.4,38.3-421.3,38.3h-340.8v306.4v306.4h340.8c294.9,0,350.4,5.7,421.3,38.3c206.8,93.8,206.8,442.3,0,536.2c-70.8,32.6-126.4,38.3-421.3,38.3h-340.8v306.4v306.4h340.8c294.9,0,350.4,5.7,421.3,38.3c203,91.9,206.8,432.7,5.7,534.2c-68.9,36.4-111.1,40.2-423.2,40.2h-344.7v306.4v306.4h340.8c294.9,0,350.4,5.7,421.3,38.3c206.8,93.8,206.8,442.3,0,536.2c-70.8,32.6-126.4,38.3-421.3,38.3h-340.8v306.4v306.4h340.8c407.9,0,478.7,21.1,540,157c76.6,168.5,23,352.3-118.7,417.4c-70.8,32.6-126.4,38.3-419.3,38.3h-337l-11.5,187.7c-17.2,293-101.5,492.1-296.8,697c-204.9,216.4-430.8,317.9-735.3,335.1l-187.6,11.5v337c0,293-5.7,348.5-38.3,419.3c-91.9,203-432.7,206.8-534.2,5.7c-36.4-68.9-40.2-111.1-40.2-423.2v-344.7h-306.4h-306.4v340.8c0,294.9-5.7,350.4-38.3,421.3c-93.8,206.8-442.3,206.8-536.1,0c-32.6-70.8-38.3-126.4-38.3-421.3v-340.8h-306.4h-306.4v340.8c0,294.9-5.7,350.4-38.3,421.3c-93.8,206.8-442.3,206.8-536.1,0c-32.6-70.8-38.3-126.4-38.3-421.3v-340.8h-306.4h-306.4v340.8c0,294.9-5.7,350.4-38.3,421.3c-93.8,206.8-442.3,206.8-536.1,0c-32.6-70.8-38.3-126.4-38.3-421.3v-340.8h-306.4h-306.4v340.8c0,294.9-5.7,350.4-38.3,421.3c-42.1,91.9-151.3,157-268.1,157C2512.7,5021,2445.6,5003.7,2399.7,4982.7z M8079,3458.5c99.6-40.2,191.5-134,245.1-247l46-95.7V119v-2996.7l-46-95.7c-53.6-114.9-126.4-185.7-241.3-237.4c-86.2-38.3-109.2-40.2-3082.8-40.2c-2973.7,0-2996.7,1.9-3082.9,40.2c-114.9,51.7-187.6,122.6-241.3,237.4l-45.9,95.7V119c0,2973.7,1.9,2996.7,40.2,3082.8c51.7,114.9,122.5,187.7,237.4,241.3l95.7,46h3002.4C7675,3489.1,8015.8,3485.3,8079,3458.5z"/></g></g>
</svg>